<mxfile host="app.diagrams.net" agent="Mozilla/5.0 (X11; Linux x86_64; rv:140.0) Gecko/20100101 Firefox/140.0" version="27.1.4">
  <diagram name="Page-1" id="yp0OEIX2oCFz1iNVK1zR">
    <mxGraphModel dx="576" dy="1897" grid="1" gridSize="10" guides="1" tooltips="1" connect="1" arrows="1" fold="1" page="1" pageScale="1" pageWidth="850" pageHeight="1100" math="0" shadow="0">
      <root>
        <mxCell id="0" />
        <mxCell id="1" parent="0" />
        <mxCell id="x8wqoXhmhFcVxB8aigLl-1" value="&lt;p style=&quot;margin:0px;margin-top:4px;text-align:center;&quot;&gt;&lt;b&gt;AddOperation&lt;/b&gt;&lt;/p&gt;&lt;hr size=&quot;1&quot;/&gt;" style="verticalAlign=top;align=left;overflow=fill;fontSize=14;fontFamily=Helvetica;html=1;rounded=0;shadow=0;comic=0;labelBackgroundColor=none;strokeWidth=1;" parent="1" vertex="1">
          <mxGeometry x="1450" y="207" width="158" height="33" as="geometry" />
        </mxCell>
        <mxCell id="x8wqoXhmhFcVxB8aigLl-2" value="&lt;p style=&quot;margin:0px;margin-top:4px;text-align:center;&quot;&gt;&lt;b&gt;AndExpression&lt;/b&gt;&lt;/p&gt;&lt;hr size=&quot;1&quot;/&gt;" style="verticalAlign=top;align=left;overflow=fill;fontSize=14;fontFamily=Helvetica;html=1;rounded=0;shadow=0;comic=0;labelBackgroundColor=none;strokeWidth=1;" parent="1" vertex="1">
          <mxGeometry x="1662" y="266" width="164" height="33" as="geometry" />
        </mxCell>
        <mxCell id="x8wqoXhmhFcVxB8aigLl-3" value="&lt;p style=&quot;margin:0px;margin-top:4px;text-align:center;&quot;&gt;&lt;b&gt;ArithmeticOperator&lt;/b&gt;&lt;/p&gt;&lt;hr size=&quot;1&quot;/&gt;" style="verticalAlign=top;align=left;overflow=fill;fontSize=14;fontFamily=Helvetica;html=1;rounded=0;shadow=0;comic=0;labelBackgroundColor=none;strokeWidth=1;" parent="1" vertex="1">
          <mxGeometry x="1420" y="146" width="200" height="33" as="geometry" />
        </mxCell>
        <mxCell id="x8wqoXhmhFcVxB8aigLl-4" value="&lt;p style=&quot;margin:0px;margin-top:4px;text-align:center;&quot;&gt;&lt;b&gt;BinaryExpression&lt;/b&gt;&lt;/p&gt;&lt;hr size=&quot;1&quot;/&gt;" style="verticalAlign=top;align=left;overflow=fill;fontSize=14;fontFamily=Helvetica;html=1;rounded=0;shadow=0;comic=0;labelBackgroundColor=none;strokeWidth=1;" parent="1" vertex="1">
          <mxGeometry x="1428" y="44" width="183" height="33" as="geometry" />
        </mxCell>
        <mxCell id="x8wqoXhmhFcVxB8aigLl-5" value="&lt;p style=&quot;margin:0px;margin-top:4px;text-align:center;&quot;&gt;&lt;b&gt;BinaryLogicExpression&lt;/b&gt;&lt;/p&gt;&lt;hr size=&quot;1&quot;/&gt;" style="verticalAlign=top;align=left;overflow=fill;fontSize=14;fontFamily=Helvetica;html=1;rounded=0;shadow=0;comic=0;labelBackgroundColor=none;strokeWidth=1;" parent="1" vertex="1">
          <mxGeometry x="1643" y="146" width="224" height="33" as="geometry" />
        </mxCell>
        <mxCell id="x8wqoXhmhFcVxB8aigLl-6" value="&lt;p style=&quot;margin:0px;margin-top:4px;text-align:center;&quot;&gt;&lt;b&gt;ComparisonOperator&lt;/b&gt;&lt;/p&gt;&lt;hr size=&quot;1&quot;/&gt;" style="verticalAlign=top;align=left;overflow=fill;fontSize=14;fontFamily=Helvetica;html=1;rounded=0;shadow=0;comic=0;labelBackgroundColor=none;strokeWidth=1;" parent="1" vertex="1">
          <mxGeometry x="1194" y="146" width="214" height="33" as="geometry" />
        </mxCell>
        <mxCell id="x8wqoXhmhFcVxB8aigLl-7" value="&lt;p style=&quot;margin:0px;margin-top:4px;text-align:center;&quot;&gt;&lt;b&gt;DivideOperation&lt;/b&gt;&lt;/p&gt;&lt;hr size=&quot;1&quot;/&gt;" style="verticalAlign=top;align=left;overflow=fill;fontSize=14;fontFamily=Helvetica;html=1;rounded=0;shadow=0;comic=0;labelBackgroundColor=none;strokeWidth=1;" parent="1" vertex="1">
          <mxGeometry x="1450" y="279" width="175" height="33" as="geometry" />
        </mxCell>
        <mxCell id="x8wqoXhmhFcVxB8aigLl-8" value="&lt;p style=&quot;margin:0px;margin-top:4px;text-align:center;&quot;&gt;&lt;i&gt;&amp;lt;&amp;lt;record&amp;gt;&amp;gt;&lt;/i&gt;&lt;br/&gt;&lt;b&gt;DoubleLiteral&lt;/b&gt;&lt;/p&gt;&lt;hr size=&quot;1&quot;/&gt;" style="verticalAlign=top;align=left;overflow=fill;fontSize=14;fontFamily=Helvetica;html=1;rounded=0;shadow=0;comic=0;labelBackgroundColor=none;strokeWidth=1;" parent="1" vertex="1">
          <mxGeometry x="2010" y="321" width="153" height="39" as="geometry" />
        </mxCell>
        <mxCell id="x8wqoXhmhFcVxB8aigLl-9" value="&lt;p style=&quot;margin:0px;margin-top:4px;text-align:center;&quot;&gt;&lt;b&gt;EqualsTo&lt;/b&gt;&lt;/p&gt;&lt;hr size=&quot;1&quot;/&gt;" style="verticalAlign=top;align=left;overflow=fill;fontSize=14;fontFamily=Helvetica;html=1;rounded=0;shadow=0;comic=0;labelBackgroundColor=none;strokeWidth=1;" parent="1" vertex="1">
          <mxGeometry x="1248" y="207" width="119" height="33" as="geometry" />
        </mxCell>
        <mxCell id="x8wqoXhmhFcVxB8aigLl-10" value="&lt;p style=&quot;margin:0px;margin-top:4px;text-align:center;&quot;&gt;&lt;i&gt;&amp;lt;&amp;lt;interface&amp;gt;&amp;gt;&lt;/i&gt;&lt;br/&gt;&lt;b&gt;Expression&lt;/b&gt;&lt;/p&gt;&lt;hr size=&quot;1&quot;/&gt;" style="verticalAlign=top;align=left;overflow=fill;fontSize=14;fontFamily=Helvetica;html=1;rounded=0;shadow=0;comic=0;labelBackgroundColor=none;strokeWidth=1;" parent="1" vertex="1">
          <mxGeometry x="2083" y="-66" width="125" height="39" as="geometry" />
        </mxCell>
        <mxCell id="x8wqoXhmhFcVxB8aigLl-11" value="&lt;p style=&quot;margin:0px;margin-top:4px;text-align:center;&quot;&gt;&lt;i&gt;&amp;lt;&amp;lt;interface&amp;gt;&amp;gt;&lt;/i&gt;&lt;br/&gt;&lt;b&gt;ExpressionVisitor&lt;T&gt;&lt;/b&gt;&lt;/p&gt;&lt;hr size=&quot;1&quot;/&gt;" style="verticalAlign=top;align=left;overflow=fill;fontSize=14;fontFamily=Helvetica;html=1;rounded=0;shadow=0;comic=0;labelBackgroundColor=none;strokeWidth=1;" parent="1" vertex="1">
          <mxGeometry x="1568" y="-124" width="196" height="39" as="geometry" />
        </mxCell>
        <mxCell id="x8wqoXhmhFcVxB8aigLl-12" value="&lt;p style=&quot;margin:0px;margin-top:4px;text-align:center;&quot;&gt;&lt;b&gt;ExpressionVisitorAdapter&lt;T&gt;&lt;/b&gt;&lt;/p&gt;&lt;hr size=&quot;1&quot;/&gt;" style="verticalAlign=top;align=left;overflow=fill;fontSize=14;fontFamily=Helvetica;html=1;rounded=0;shadow=0;comic=0;labelBackgroundColor=none;strokeWidth=1;" parent="1" vertex="1">
          <mxGeometry x="1530" y="-43" width="271" height="33" as="geometry" />
        </mxCell>
        <mxCell id="x8wqoXhmhFcVxB8aigLl-13" value="&lt;p style=&quot;margin:0px;margin-top:4px;text-align:center;&quot;&gt;&lt;i&gt;&amp;lt;&amp;lt;interface&amp;gt;&amp;gt;&lt;/i&gt;&lt;br/&gt;&lt;b&gt;FunctionArgument&lt;/b&gt;&lt;/p&gt;&lt;hr size=&quot;1&quot;/&gt;" style="verticalAlign=top;align=left;overflow=fill;fontSize=14;fontFamily=Helvetica;html=1;rounded=0;shadow=0;comic=0;labelBackgroundColor=none;strokeWidth=1;" parent="1" vertex="1">
          <mxGeometry x="2309" y="68" width="179" height="39" as="geometry" />
        </mxCell>
        <mxCell id="x8wqoXhmhFcVxB8aigLl-14" value="&lt;p style=&quot;margin:0px;margin-top:4px;text-align:center;&quot;&gt;&lt;i&gt;&amp;lt;&amp;lt;record&amp;gt;&amp;gt;&lt;/i&gt;&lt;br/&gt;&lt;b&gt;FunctionCall&lt;/b&gt;&lt;/p&gt;&lt;hr size=&quot;1&quot;/&gt;" style="verticalAlign=top;align=left;overflow=fill;fontSize=14;fontFamily=Helvetica;html=1;rounded=0;shadow=0;comic=0;labelBackgroundColor=none;strokeWidth=1;" parent="1" vertex="1">
          <mxGeometry x="2445" y="185" width="143" height="39" as="geometry" />
        </mxCell>
        <mxCell id="x8wqoXhmhFcVxB8aigLl-15" value="&lt;p style=&quot;margin:0px;margin-top:4px;text-align:center;&quot;&gt;&lt;b&gt;GreaterThan&lt;/b&gt;&lt;/p&gt;&lt;hr size=&quot;1&quot;/&gt;" style="verticalAlign=top;align=left;overflow=fill;fontSize=14;fontFamily=Helvetica;html=1;rounded=0;shadow=0;comic=0;labelBackgroundColor=none;strokeWidth=1;" parent="1" vertex="1">
          <mxGeometry x="1220" y="280.5" width="147" height="33" as="geometry" />
        </mxCell>
        <mxCell id="x8wqoXhmhFcVxB8aigLl-16" value="&lt;p style=&quot;margin:0px;margin-top:4px;text-align:center;&quot;&gt;&lt;b&gt;GreaterThanOrEquals&lt;/b&gt;&lt;/p&gt;&lt;hr size=&quot;1&quot;/&gt;" style="verticalAlign=top;align=left;overflow=fill;fontSize=14;fontFamily=Helvetica;html=1;rounded=0;shadow=0;comic=0;labelBackgroundColor=none;strokeWidth=1;" parent="1" vertex="1">
          <mxGeometry x="1150" y="320" width="217" height="33" as="geometry" />
        </mxCell>
        <mxCell id="x8wqoXhmhFcVxB8aigLl-17" value="&lt;p style=&quot;margin:0px;margin-top:4px;text-align:center;&quot;&gt;&lt;i&gt;&amp;lt;&amp;lt;record&amp;gt;&amp;gt;&lt;/i&gt;&lt;br/&gt;&lt;b&gt;Identifier&lt;/b&gt;&lt;/p&gt;&lt;hr size=&quot;1&quot;/&gt;" style="verticalAlign=top;align=left;overflow=fill;fontSize=14;fontFamily=Helvetica;html=1;rounded=0;shadow=0;comic=0;labelBackgroundColor=none;strokeWidth=1;" parent="1" vertex="1">
          <mxGeometry x="2445" y="143" width="121" height="39" as="geometry" />
        </mxCell>
        <mxCell id="x8wqoXhmhFcVxB8aigLl-18" value="&lt;p style=&quot;margin:0px;margin-top:4px;text-align:center;&quot;&gt;&lt;i&gt;&amp;lt;&amp;lt;record&amp;gt;&amp;gt;&lt;/i&gt;&lt;br/&gt;&lt;b&gt;IntegerLiteral&lt;/b&gt;&lt;/p&gt;&lt;hr size=&quot;1&quot;/&gt;" style="verticalAlign=top;align=left;overflow=fill;fontSize=14;fontFamily=Helvetica;html=1;rounded=0;shadow=0;comic=0;labelBackgroundColor=none;strokeWidth=1;" parent="1" vertex="1">
          <mxGeometry x="2183" y="321" width="155" height="39" as="geometry" />
        </mxCell>
        <mxCell id="x8wqoXhmhFcVxB8aigLl-19" value="&lt;p style=&quot;margin:0px;margin-top:4px;text-align:center;&quot;&gt;&lt;b&gt;LessThan&lt;/b&gt;&lt;/p&gt;&lt;hr size=&quot;1&quot;/&gt;" style="verticalAlign=top;align=left;overflow=fill;fontSize=14;fontFamily=Helvetica;html=1;rounded=0;shadow=0;comic=0;labelBackgroundColor=none;strokeWidth=1;" parent="1" vertex="1">
          <mxGeometry x="1245" y="360" width="122" height="33" as="geometry" />
        </mxCell>
        <mxCell id="x8wqoXhmhFcVxB8aigLl-20" value="&lt;p style=&quot;margin:0px;margin-top:4px;text-align:center;&quot;&gt;&lt;b&gt;LessThanOrEquals&lt;/b&gt;&lt;/p&gt;&lt;hr size=&quot;1&quot;/&gt;" style="verticalAlign=top;align=left;overflow=fill;fontSize=14;fontFamily=Helvetica;html=1;rounded=0;shadow=0;comic=0;labelBackgroundColor=none;strokeWidth=1;" parent="1" vertex="1">
          <mxGeometry x="1175" y="400" width="192" height="33" as="geometry" />
        </mxCell>
        <mxCell id="x8wqoXhmhFcVxB8aigLl-21" value="&lt;p style=&quot;margin:0px;margin-top:4px;text-align:center;&quot;&gt;&lt;i&gt;&amp;lt;&amp;lt;interface&amp;gt;&amp;gt;&lt;/i&gt;&lt;br/&gt;&lt;b&gt;Literal&lt;/b&gt;&lt;/p&gt;&lt;hr size=&quot;1&quot;/&gt;" style="verticalAlign=top;align=left;overflow=fill;fontSize=14;fontFamily=Helvetica;html=1;rounded=0;shadow=0;comic=0;labelBackgroundColor=none;strokeWidth=1;" parent="1" vertex="1">
          <mxGeometry x="2253" y="143" width="94" height="39" as="geometry" />
        </mxCell>
        <mxCell id="x8wqoXhmhFcVxB8aigLl-22" value="&lt;p style=&quot;margin:0px;margin-top:4px;text-align:center;&quot;&gt;&lt;i&gt;&amp;lt;&amp;lt;interface&amp;gt;&amp;gt;&lt;/i&gt;&lt;br/&gt;&lt;b&gt;LogicExpression&lt;/b&gt;&lt;/p&gt;&lt;hr size=&quot;1&quot;/&gt;" style="verticalAlign=top;align=left;overflow=fill;fontSize=14;fontFamily=Helvetica;html=1;rounded=0;shadow=0;comic=0;labelBackgroundColor=none;strokeWidth=1;" parent="1" vertex="1">
          <mxGeometry x="1810" y="65" width="162" height="39" as="geometry" />
        </mxCell>
        <mxCell id="x8wqoXhmhFcVxB8aigLl-23" value="&lt;p style=&quot;margin:0px;margin-top:4px;text-align:center;&quot;&gt;&lt;b&gt;MultiplyOperation&lt;/b&gt;&lt;/p&gt;&lt;hr size=&quot;1&quot;/&gt;" style="verticalAlign=top;align=left;overflow=fill;fontSize=14;fontFamily=Helvetica;html=1;rounded=0;shadow=0;comic=0;labelBackgroundColor=none;strokeWidth=1;" parent="1" vertex="1">
          <mxGeometry x="1450" y="314" width="189" height="33" as="geometry" />
        </mxCell>
        <mxCell id="x8wqoXhmhFcVxB8aigLl-25" value="&lt;p style=&quot;margin:0px;margin-top:4px;text-align:center;&quot;&gt;&lt;b&gt;NotExpression&lt;/b&gt;&lt;/p&gt;&lt;hr size=&quot;1&quot;/&gt;" style="verticalAlign=top;align=left;overflow=fill;fontSize=14;fontFamily=Helvetica;html=1;rounded=0;shadow=0;comic=0;labelBackgroundColor=none;strokeWidth=1;" parent="1" vertex="1">
          <mxGeometry x="1904" y="227" width="162" height="33" as="geometry" />
        </mxCell>
        <mxCell id="x8wqoXhmhFcVxB8aigLl-26" value="&lt;p style=&quot;margin:0px;margin-top:4px;text-align:center;&quot;&gt;&lt;i&gt;&amp;lt;&amp;lt;record&amp;gt;&amp;gt;&lt;/i&gt;&lt;br/&gt;&lt;b&gt;NullLiteral&lt;/b&gt;&lt;/p&gt;&lt;hr size=&quot;1&quot;/&gt;" style="verticalAlign=top;align=left;overflow=fill;fontSize=14;fontFamily=Helvetica;html=1;rounded=0;shadow=0;comic=0;labelBackgroundColor=none;strokeWidth=1;" parent="1" vertex="1">
          <mxGeometry x="2334.5" y="239" width="128" height="39" as="geometry" />
        </mxCell>
        <mxCell id="x8wqoXhmhFcVxB8aigLl-27" value="&lt;p style=&quot;margin:0px;margin-top:4px;text-align:center;&quot;&gt;&lt;i&gt;&amp;lt;&amp;lt;interface&amp;gt;&amp;gt;&lt;/i&gt;&lt;br/&gt;&lt;b&gt;NumericLiteral&lt;T, S&gt;&lt;/b&gt;&lt;/p&gt;&lt;hr size=&quot;1&quot;/&gt;" style="verticalAlign=top;align=left;overflow=fill;fontSize=14;fontFamily=Helvetica;html=1;rounded=0;shadow=0;comic=0;labelBackgroundColor=none;strokeWidth=1;" parent="1" vertex="1">
          <mxGeometry x="2075" y="224" width="198" height="39" as="geometry" />
        </mxCell>
        <mxCell id="x8wqoXhmhFcVxB8aigLl-28" value="&lt;p style=&quot;margin:0px;margin-top:4px;text-align:center;&quot;&gt;&lt;b&gt;OrExpression&lt;/b&gt;&lt;/p&gt;&lt;hr size=&quot;1&quot;/&gt;" style="verticalAlign=top;align=left;overflow=fill;fontSize=14;fontFamily=Helvetica;html=1;rounded=0;shadow=0;comic=0;labelBackgroundColor=none;strokeWidth=1;" parent="1" vertex="1">
          <mxGeometry x="1672" y="227" width="154" height="33" as="geometry" />
        </mxCell>
        <mxCell id="x8wqoXhmhFcVxB8aigLl-29" value="&lt;p style=&quot;margin:0px;margin-top:4px;text-align:center;&quot;&gt;&lt;b&gt;Statement&lt;/b&gt;&lt;/p&gt;&lt;hr size=&quot;1&quot;/&gt;" style="verticalAlign=top;align=left;overflow=fill;fontSize=14;fontFamily=Helvetica;html=1;rounded=0;shadow=0;comic=0;labelBackgroundColor=none;strokeWidth=1;" parent="1" vertex="1">
          <mxGeometry x="2083" y="-124" width="129" height="33" as="geometry" />
        </mxCell>
        <mxCell id="x8wqoXhmhFcVxB8aigLl-30" value="&lt;p style=&quot;margin:0px;margin-top:4px;text-align:center;&quot;&gt;&lt;i&gt;&amp;lt;&amp;lt;record&amp;gt;&amp;gt;&lt;/i&gt;&lt;br/&gt;&lt;b&gt;StringLiteral&lt;/b&gt;&lt;/p&gt;&lt;hr size=&quot;1&quot;/&gt;" style="verticalAlign=top;align=left;overflow=fill;fontSize=14;fontFamily=Helvetica;html=1;rounded=0;shadow=0;comic=0;labelBackgroundColor=none;strokeWidth=1;" parent="1" vertex="1">
          <mxGeometry x="2338" y="284" width="144" height="39" as="geometry" />
        </mxCell>
        <mxCell id="x8wqoXhmhFcVxB8aigLl-31" value="&lt;p style=&quot;margin:0px;margin-top:4px;text-align:center;&quot;&gt;&lt;b&gt;SubtractOperation&lt;/b&gt;&lt;/p&gt;&lt;hr size=&quot;1&quot;/&gt;" style="verticalAlign=top;align=left;overflow=fill;fontSize=14;fontFamily=Helvetica;html=1;rounded=0;shadow=0;comic=0;labelBackgroundColor=none;strokeWidth=1;" parent="1" vertex="1">
          <mxGeometry x="1450" y="243" width="193" height="33" as="geometry" />
        </mxCell>
        <mxCell id="x8wqoXhmhFcVxB8aigLl-32" value="&lt;p style=&quot;margin:0px;margin-top:4px;text-align:center;&quot;&gt;&lt;b&gt;UnaryExpression&lt;/b&gt;&lt;/p&gt;&lt;hr size=&quot;1&quot;/&gt;" style="verticalAlign=top;align=left;overflow=fill;fontSize=14;fontFamily=Helvetica;html=1;rounded=0;shadow=0;comic=0;labelBackgroundColor=none;strokeWidth=1;" parent="1" vertex="1">
          <mxGeometry x="1980" y="65" width="180" height="33" as="geometry" />
        </mxCell>
        <mxCell id="x8wqoXhmhFcVxB8aigLl-33" value="&lt;p style=&quot;margin:0px;margin-top:4px;text-align:center;&quot;&gt;&lt;b&gt;UnaryLogicExpression&lt;/b&gt;&lt;/p&gt;&lt;hr size=&quot;1&quot;/&gt;" style="verticalAlign=top;align=left;overflow=fill;fontSize=14;fontFamily=Helvetica;html=1;rounded=0;shadow=0;comic=0;labelBackgroundColor=none;strokeWidth=1;" parent="1" vertex="1">
          <mxGeometry x="1874" y="146" width="221" height="33" as="geometry" />
        </mxCell>
        <mxCell id="x8wqoXhmhFcVxB8aigLl-34" value="" style="html=1;rounded=1;edgeStyle=orthogonalEdgeStyle;dashed=0;startArrow=none;endArrow=block;endSize=12;strokeColor=#000082;entryX=0.500;entryY=1.001;entryDx=0;entryDy=0;" parent="1" edge="1">
          <mxGeometry width="50" height="50" relative="1" as="geometry">
            <Array as="points">
              <mxPoint x="1440" y="222" />
            </Array>
            <mxPoint x="1450" y="220" as="sourcePoint" />
            <mxPoint x="1440" y="179" as="targetPoint" />
          </mxGeometry>
        </mxCell>
        <mxCell id="x8wqoXhmhFcVxB8aigLl-35" value="" style="html=1;rounded=1;edgeStyle=orthogonalEdgeStyle;dashed=0;startArrow=none;endArrow=block;endSize=12;strokeColor=#000082;exitX=1;exitY=0.5;exitDx=0;exitDy=0;entryX=0.500;entryY=1.002;entryDx=0;entryDy=0;" parent="1" source="x8wqoXhmhFcVxB8aigLl-2" edge="1">
          <mxGeometry width="50" height="50" relative="1" as="geometry">
            <Array as="points">
              <mxPoint x="1838" y="283" />
            </Array>
            <mxPoint x="1838" y="179.00000000000023" as="targetPoint" />
          </mxGeometry>
        </mxCell>
        <mxCell id="x8wqoXhmhFcVxB8aigLl-36" value="" style="html=1;rounded=1;edgeStyle=orthogonalEdgeStyle;dashed=0;startArrow=none;endArrow=block;endSize=12;strokeColor=#000082;exitX=0.500;exitY=0.001;exitDx=0;exitDy=0;entryX=0.500;entryY=1.001;entryDx=0;entryDy=0;" parent="1" source="x8wqoXhmhFcVxB8aigLl-3" target="x8wqoXhmhFcVxB8aigLl-4" edge="1">
          <mxGeometry width="50" height="50" relative="1" as="geometry">
            <Array as="points" />
          </mxGeometry>
        </mxCell>
        <mxCell id="x8wqoXhmhFcVxB8aigLl-37" value="" style="html=1;rounded=1;edgeStyle=orthogonalEdgeStyle;dashed=1;startArrow=none;endArrow=block;endSize=12;strokeColor=#008200;exitX=0.500;exitY=0.002;exitDx=0;exitDy=0;entryX=0.500;entryY=1.000;entryDx=0;entryDy=0;" parent="1" source="x8wqoXhmhFcVxB8aigLl-4" target="x8wqoXhmhFcVxB8aigLl-10" edge="1">
          <mxGeometry width="50" height="50" relative="1" as="geometry">
            <Array as="points">
              <mxPoint x="1520" y="40" />
              <mxPoint x="1520" y="40" />
              <mxPoint x="1520" y="38" />
              <mxPoint x="2146" y="38" />
            </Array>
          </mxGeometry>
        </mxCell>
        <mxCell id="x8wqoXhmhFcVxB8aigLl-38" value="" style="html=1;rounded=1;edgeStyle=orthogonalEdgeStyle;dashed=0;startArrow=none;endArrow=block;endSize=12;strokeColor=#000082;exitX=0.25;exitY=0;exitDx=0;exitDy=0;entryX=0.500;entryY=1.001;entryDx=0;entryDy=0;" parent="1" source="x8wqoXhmhFcVxB8aigLl-5" target="x8wqoXhmhFcVxB8aigLl-4" edge="1">
          <mxGeometry width="50" height="50" relative="1" as="geometry">
            <Array as="points">
              <mxPoint x="1699" y="121" />
              <mxPoint x="1520" y="121" />
            </Array>
          </mxGeometry>
        </mxCell>
        <mxCell id="x8wqoXhmhFcVxB8aigLl-39" value="" style="html=1;rounded=1;edgeStyle=orthogonalEdgeStyle;dashed=1;startArrow=none;endArrow=block;endSize=12;strokeColor=#008200;exitX=0.701;exitY=0.032;exitDx=0;exitDy=0;entryX=0.500;entryY=1.002;entryDx=0;entryDy=0;exitPerimeter=0;" parent="1" source="x8wqoXhmhFcVxB8aigLl-5" target="x8wqoXhmhFcVxB8aigLl-22" edge="1">
          <mxGeometry width="50" height="50" relative="1" as="geometry">
            <Array as="points">
              <mxPoint x="1800" y="121" />
              <mxPoint x="1891" y="121" />
            </Array>
          </mxGeometry>
        </mxCell>
        <mxCell id="x8wqoXhmhFcVxB8aigLl-40" value="" style="html=1;rounded=1;edgeStyle=orthogonalEdgeStyle;dashed=0;startArrow=none;endArrow=block;endSize=12;strokeColor=#000082;exitX=0.500;exitY=0.002;exitDx=0;exitDy=0;entryX=0.500;entryY=1.000;entryDx=0;entryDy=0;" parent="1" source="x8wqoXhmhFcVxB8aigLl-6" target="x8wqoXhmhFcVxB8aigLl-4" edge="1">
          <mxGeometry width="50" height="50" relative="1" as="geometry">
            <Array as="points">
              <mxPoint x="1301" y="121" />
              <mxPoint x="1520" y="121" />
            </Array>
          </mxGeometry>
        </mxCell>
        <mxCell id="x8wqoXhmhFcVxB8aigLl-41" value="" style="html=1;rounded=1;edgeStyle=orthogonalEdgeStyle;dashed=0;startArrow=none;endArrow=block;endSize=12;strokeColor=#000082;exitX=0.000;exitY=0.500;exitDx=0;exitDy=0;entryX=0.500;entryY=1.001;entryDx=0;entryDy=0;" parent="1" source="x8wqoXhmhFcVxB8aigLl-7" edge="1">
          <mxGeometry width="50" height="50" relative="1" as="geometry">
            <Array as="points">
              <mxPoint x="1440" y="296" />
            </Array>
            <mxPoint x="1440" y="179" as="targetPoint" />
          </mxGeometry>
        </mxCell>
        <mxCell id="x8wqoXhmhFcVxB8aigLl-42" value="" style="html=1;rounded=1;edgeStyle=orthogonalEdgeStyle;dashed=1;startArrow=none;endArrow=block;endSize=12;strokeColor=#008200;exitX=0.500;exitY=0.002;exitDx=0;exitDy=0;entryX=0.500;entryY=1.002;entryDx=0;entryDy=0;" parent="1" source="x8wqoXhmhFcVxB8aigLl-8" target="x8wqoXhmhFcVxB8aigLl-27" edge="1">
          <mxGeometry width="50" height="50" relative="1" as="geometry">
            <Array as="points">
              <mxPoint x="2152" y="310.5" />
              <mxPoint x="2239" y="310.5" />
            </Array>
          </mxGeometry>
        </mxCell>
        <mxCell id="x8wqoXhmhFcVxB8aigLl-43" value="" style="html=1;rounded=1;edgeStyle=orthogonalEdgeStyle;dashed=0;startArrow=none;endArrow=block;endSize=12;strokeColor=#000082;exitX=1.000;exitY=0.500;exitDx=0;exitDy=0;entryX=0.500;entryY=1.001;entryDx=0;entryDy=0;" parent="1" source="x8wqoXhmhFcVxB8aigLl-9" edge="1">
          <mxGeometry width="50" height="50" relative="1" as="geometry">
            <Array as="points">
              <mxPoint x="1386" y="222" />
            </Array>
            <mxPoint x="1386" y="179" as="targetPoint" />
          </mxGeometry>
        </mxCell>
        <mxCell id="x8wqoXhmhFcVxB8aigLl-44" value="" style="html=1;rounded=1;edgeStyle=orthogonalEdgeStyle;dashed=1;startArrow=none;endArrow=block;endSize=12;strokeColor=#008200;exitX=0.500;exitY=0.002;exitDx=0;exitDy=0;entryX=0.500;entryY=1.002;entryDx=0;entryDy=0;" parent="1" source="x8wqoXhmhFcVxB8aigLl-12" target="x8wqoXhmhFcVxB8aigLl-11" edge="1">
          <mxGeometry width="50" height="50" relative="1" as="geometry">
            <Array as="points" />
          </mxGeometry>
        </mxCell>
        <mxCell id="x8wqoXhmhFcVxB8aigLl-45" value="" style="html=1;rounded=1;edgeStyle=orthogonalEdgeStyle;dashed=0;startArrow=none;endArrow=block;endSize=12;strokeColor=#008200;exitX=0.500;exitY=0.001;exitDx=0;exitDy=0;entryX=0.499;entryY=1.000;entryDx=0;entryDy=0;" parent="1" source="x8wqoXhmhFcVxB8aigLl-13" target="x8wqoXhmhFcVxB8aigLl-10" edge="1">
          <mxGeometry width="50" height="50" relative="1" as="geometry">
            <Array as="points">
              <mxPoint x="2400" y="38" />
              <mxPoint x="2145" y="38" />
            </Array>
          </mxGeometry>
        </mxCell>
        <mxCell id="x8wqoXhmhFcVxB8aigLl-46" value="" style="html=1;rounded=1;edgeStyle=orthogonalEdgeStyle;dashed=1;startArrow=none;endArrow=block;endSize=12;strokeColor=#008200;exitX=0;exitY=0.5;exitDx=0;exitDy=0;" parent="1" source="x8wqoXhmhFcVxB8aigLl-14" edge="1">
          <mxGeometry width="50" height="50" relative="1" as="geometry">
            <Array as="points">
              <mxPoint x="2425" y="205" />
            </Array>
            <mxPoint x="2425" y="108" as="targetPoint" />
          </mxGeometry>
        </mxCell>
        <mxCell id="x8wqoXhmhFcVxB8aigLl-48" value="" style="html=1;rounded=1;edgeStyle=orthogonalEdgeStyle;dashed=0;startArrow=none;endArrow=block;endSize=12;strokeColor=#000082;entryX=0.500;entryY=1.001;entryDx=0;entryDy=0;exitX=1;exitY=0.5;exitDx=0;exitDy=0;" parent="1" source="x8wqoXhmhFcVxB8aigLl-16" edge="1">
          <mxGeometry width="50" height="50" relative="1" as="geometry">
            <Array as="points">
              <mxPoint x="1385" y="336" />
              <mxPoint x="1385" y="304" />
              <mxPoint x="1386" y="304" />
            </Array>
            <mxPoint x="1365" y="345" as="sourcePoint" />
            <mxPoint x="1386" y="179" as="targetPoint" />
          </mxGeometry>
        </mxCell>
        <mxCell id="x8wqoXhmhFcVxB8aigLl-50" value="" style="html=1;rounded=1;edgeStyle=orthogonalEdgeStyle;dashed=1;startArrow=none;endArrow=block;endSize=12;strokeColor=#008200;exitX=0.500;exitY=0.002;exitDx=0;exitDy=0;entryX=0.500;entryY=1.002;entryDx=0;entryDy=0;" parent="1" source="x8wqoXhmhFcVxB8aigLl-18" target="x8wqoXhmhFcVxB8aigLl-27" edge="1">
          <mxGeometry width="50" height="50" relative="1" as="geometry">
            <Array as="points">
              <mxPoint x="2261" y="311" />
              <mxPoint x="2174" y="311" />
            </Array>
          </mxGeometry>
        </mxCell>
        <mxCell id="x8wqoXhmhFcVxB8aigLl-51" value="" style="html=1;rounded=1;edgeStyle=orthogonalEdgeStyle;dashed=0;startArrow=none;endArrow=block;endSize=12;strokeColor=#000082;exitX=1.000;exitY=0.500;exitDx=0;exitDy=0;entryX=0.500;entryY=1.001;entryDx=0;entryDy=0;" parent="1" source="x8wqoXhmhFcVxB8aigLl-19" edge="1">
          <mxGeometry width="50" height="50" relative="1" as="geometry">
            <Array as="points">
              <mxPoint x="1386" y="377" />
            </Array>
            <mxPoint x="1386" y="179" as="targetPoint" />
          </mxGeometry>
        </mxCell>
        <mxCell id="x8wqoXhmhFcVxB8aigLl-52" value="" style="html=1;rounded=1;edgeStyle=orthogonalEdgeStyle;dashed=0;startArrow=none;endArrow=block;endSize=12;strokeColor=#000082;exitX=1.000;exitY=0.500;exitDx=0;exitDy=0;entryX=0.500;entryY=1.001;entryDx=0;entryDy=0;" parent="1" source="x8wqoXhmhFcVxB8aigLl-20" edge="1">
          <mxGeometry width="50" height="50" relative="1" as="geometry">
            <Array as="points">
              <mxPoint x="1385" y="417" />
              <mxPoint x="1385" y="303" />
              <mxPoint x="1386" y="303" />
            </Array>
            <mxPoint x="1386" y="179" as="targetPoint" />
          </mxGeometry>
        </mxCell>
        <mxCell id="x8wqoXhmhFcVxB8aigLl-53" value="" style="html=1;rounded=1;edgeStyle=orthogonalEdgeStyle;dashed=0;startArrow=none;endArrow=block;endSize=12;strokeColor=#008200;exitX=0.500;exitY=0.001;exitDx=0;exitDy=0;" parent="1" source="x8wqoXhmhFcVxB8aigLl-21" target="x8wqoXhmhFcVxB8aigLl-13" edge="1">
          <mxGeometry width="50" height="50" relative="1" as="geometry">
            <Array as="points">
              <mxPoint x="2300" y="133" />
              <mxPoint x="2355" y="133" />
            </Array>
            <mxPoint x="2409" y="133" as="targetPoint" />
          </mxGeometry>
        </mxCell>
        <mxCell id="x8wqoXhmhFcVxB8aigLl-54" value="" style="html=1;rounded=1;edgeStyle=orthogonalEdgeStyle;dashed=0;startArrow=none;endArrow=block;endSize=12;strokeColor=#008200;exitX=0.500;exitY=0.001;exitDx=0;exitDy=0;entryX=0.502;entryY=0.999;entryDx=0;entryDy=0;" parent="1" source="x8wqoXhmhFcVxB8aigLl-22" target="x8wqoXhmhFcVxB8aigLl-10" edge="1">
          <mxGeometry width="50" height="50" relative="1" as="geometry">
            <Array as="points">
              <mxPoint x="1891" y="38" />
              <mxPoint x="2146" y="38" />
            </Array>
          </mxGeometry>
        </mxCell>
        <mxCell id="x8wqoXhmhFcVxB8aigLl-55" value="" style="html=1;rounded=1;edgeStyle=orthogonalEdgeStyle;dashed=0;startArrow=none;endArrow=block;endSize=12;strokeColor=#000082;exitX=0.000;exitY=0.500;exitDx=0;exitDy=0;entryX=0.500;entryY=1.001;entryDx=0;entryDy=0;" parent="1" source="x8wqoXhmhFcVxB8aigLl-23" edge="1">
          <mxGeometry width="50" height="50" relative="1" as="geometry">
            <Array as="points">
              <mxPoint x="1440" y="331" />
            </Array>
            <mxPoint x="1440" y="179" as="targetPoint" />
          </mxGeometry>
        </mxCell>
        <mxCell id="x8wqoXhmhFcVxB8aigLl-57" value="" style="html=1;rounded=1;edgeStyle=orthogonalEdgeStyle;dashed=0;startArrow=none;endArrow=block;endSize=12;strokeColor=#000082;exitX=0.500;exitY=0.002;exitDx=0;exitDy=0;entryX=0.500;entryY=1.002;entryDx=0;entryDy=0;" parent="1" source="x8wqoXhmhFcVxB8aigLl-25" target="x8wqoXhmhFcVxB8aigLl-33" edge="1">
          <mxGeometry width="50" height="50" relative="1" as="geometry">
            <Array as="points" />
          </mxGeometry>
        </mxCell>
        <mxCell id="x8wqoXhmhFcVxB8aigLl-58" value="" style="html=1;rounded=1;edgeStyle=orthogonalEdgeStyle;dashed=1;startArrow=none;endArrow=block;endSize=12;strokeColor=#008200;exitX=0;exitY=0.5;exitDx=0;exitDy=0;entryX=0.500;entryY=1.002;entryDx=0;entryDy=0;" parent="1" source="x8wqoXhmhFcVxB8aigLl-26" target="x8wqoXhmhFcVxB8aigLl-21" edge="1">
          <mxGeometry width="50" height="50" relative="1" as="geometry">
            <Array as="points">
              <mxPoint x="2300" y="259" />
            </Array>
          </mxGeometry>
        </mxCell>
        <mxCell id="x8wqoXhmhFcVxB8aigLl-59" value="" style="html=1;rounded=1;edgeStyle=orthogonalEdgeStyle;dashed=0;startArrow=none;endArrow=block;endSize=12;strokeColor=#008200;exitX=0.577;exitY=0.001;exitDx=0;exitDy=0;" parent="1" source="x8wqoXhmhFcVxB8aigLl-27" target="x8wqoXhmhFcVxB8aigLl-21" edge="1">
          <mxGeometry width="50" height="50" relative="1" as="geometry">
            <Array as="points">
              <mxPoint x="2189" y="165" />
            </Array>
          </mxGeometry>
        </mxCell>
        <mxCell id="x8wqoXhmhFcVxB8aigLl-60" value="" style="html=1;rounded=1;edgeStyle=orthogonalEdgeStyle;dashed=0;startArrow=none;endArrow=block;endSize=12;strokeColor=#000082;exitX=1;exitY=0.5;exitDx=0;exitDy=0;entryX=0.500;entryY=1.002;entryDx=0;entryDy=0;" parent="1" source="x8wqoXhmhFcVxB8aigLl-28" edge="1">
          <mxGeometry width="50" height="50" relative="1" as="geometry">
            <Array as="points">
              <mxPoint x="1838" y="243" />
            </Array>
            <mxPoint x="1838" y="179.00000000000023" as="targetPoint" />
          </mxGeometry>
        </mxCell>
        <mxCell id="x8wqoXhmhFcVxB8aigLl-61" value="" style="html=1;rounded=1;edgeStyle=orthogonalEdgeStyle;dashed=1;startArrow=none;endArrow=block;endSize=12;strokeColor=#008200;exitX=0;exitY=0.5;exitDx=0;exitDy=0;entryX=0.500;entryY=1.002;entryDx=0;entryDy=0;" parent="1" source="x8wqoXhmhFcVxB8aigLl-30" target="x8wqoXhmhFcVxB8aigLl-21" edge="1">
          <mxGeometry width="50" height="50" relative="1" as="geometry">
            <Array as="points">
              <mxPoint x="2300" y="303" />
            </Array>
          </mxGeometry>
        </mxCell>
        <mxCell id="x8wqoXhmhFcVxB8aigLl-62" value="" style="html=1;rounded=1;edgeStyle=orthogonalEdgeStyle;dashed=0;startArrow=none;endArrow=block;endSize=12;strokeColor=#000082;entryX=0.500;entryY=1.001;entryDx=0;entryDy=0;" parent="1" edge="1">
          <mxGeometry width="50" height="50" relative="1" as="geometry">
            <Array as="points">
              <mxPoint x="1440" y="260" />
            </Array>
            <mxPoint x="1450" y="260" as="sourcePoint" />
            <mxPoint x="1440" y="179" as="targetPoint" />
          </mxGeometry>
        </mxCell>
        <mxCell id="x8wqoXhmhFcVxB8aigLl-63" value="" style="html=1;rounded=1;edgeStyle=orthogonalEdgeStyle;dashed=1;startArrow=none;endArrow=block;endSize=12;strokeColor=#008200;exitX=0.500;exitY=0.002;exitDx=0;exitDy=0;entryX=0.500;entryY=1.000;entryDx=0;entryDy=0;" parent="1" source="x8wqoXhmhFcVxB8aigLl-32" target="x8wqoXhmhFcVxB8aigLl-10" edge="1">
          <mxGeometry width="50" height="50" relative="1" as="geometry">
            <Array as="points">
              <mxPoint x="2146" y="16" />
              <mxPoint x="2146" y="16" />
            </Array>
          </mxGeometry>
        </mxCell>
        <mxCell id="x8wqoXhmhFcVxB8aigLl-64" value="" style="html=1;rounded=1;edgeStyle=orthogonalEdgeStyle;dashed=1;startArrow=none;endArrow=block;endSize=12;strokeColor=#008200;exitX=0.277;exitY=0.001;exitDx=0;exitDy=0;entryX=0.500;entryY=1.002;entryDx=0;entryDy=0;" parent="1" source="x8wqoXhmhFcVxB8aigLl-33" target="x8wqoXhmhFcVxB8aigLl-22" edge="1">
          <mxGeometry width="50" height="50" relative="1" as="geometry">
            <Array as="points">
              <mxPoint x="1935" y="121" />
              <mxPoint x="1891" y="121" />
            </Array>
          </mxGeometry>
        </mxCell>
        <mxCell id="x8wqoXhmhFcVxB8aigLl-65" value="" style="html=1;rounded=1;edgeStyle=orthogonalEdgeStyle;dashed=0;startArrow=none;endArrow=block;endSize=12;strokeColor=#000082;exitX=0.757;exitY=0.000;exitDx=0;exitDy=0;" parent="1" source="x8wqoXhmhFcVxB8aigLl-33" target="x8wqoXhmhFcVxB8aigLl-32" edge="1">
          <mxGeometry width="50" height="50" relative="1" as="geometry">
            <Array as="points">
              <mxPoint x="2040" y="146" />
            </Array>
          </mxGeometry>
        </mxCell>
        <mxCell id="x8wqoXhmhFcVxB8aigLl-24" value="&lt;p style=&quot;margin:0px;margin-top:4px;text-align:center;&quot;&gt;&lt;b&gt;NotEqualsTo&lt;/b&gt;&lt;/p&gt;&lt;hr size=&quot;1&quot;/&gt;" style="verticalAlign=top;align=left;overflow=fill;fontSize=14;fontFamily=Helvetica;html=1;rounded=0;shadow=0;comic=0;labelBackgroundColor=none;strokeWidth=1;" parent="1" vertex="1">
          <mxGeometry x="1220" y="242.5" width="147" height="33" as="geometry" />
        </mxCell>
        <mxCell id="cSopyyXctWeYhDrN9b82-1" value="" style="html=1;rounded=1;edgeStyle=orthogonalEdgeStyle;dashed=0;startArrow=none;endArrow=block;endSize=12;strokeColor=#000082;exitX=1;exitY=0.5;exitDx=0;exitDy=0;" parent="1" source="x8wqoXhmhFcVxB8aigLl-15" edge="1">
          <mxGeometry width="50" height="50" relative="1" as="geometry">
            <Array as="points">
              <mxPoint x="1385" y="297" />
            </Array>
            <mxPoint x="1375" y="330" as="sourcePoint" />
            <mxPoint x="1385" y="180" as="targetPoint" />
          </mxGeometry>
        </mxCell>
        <mxCell id="cSopyyXctWeYhDrN9b82-2" value="" style="html=1;rounded=1;edgeStyle=orthogonalEdgeStyle;dashed=0;startArrow=none;endArrow=block;endSize=12;strokeColor=#000082;exitX=1.002;exitY=0.524;exitDx=0;exitDy=0;exitPerimeter=0;" parent="1" source="x8wqoXhmhFcVxB8aigLl-24" edge="1">
          <mxGeometry width="50" height="50" relative="1" as="geometry">
            <Array as="points">
              <mxPoint x="1367" y="263" />
              <mxPoint x="1367" y="263" />
              <mxPoint x="1367" y="260" />
              <mxPoint x="1385" y="260" />
            </Array>
            <mxPoint x="1367" y="296" as="sourcePoint" />
            <mxPoint x="1385" y="179" as="targetPoint" />
          </mxGeometry>
        </mxCell>
        <mxCell id="BageB_GObOsUknx3u2AP-1" value="" style="html=1;rounded=1;edgeStyle=orthogonalEdgeStyle;dashed=1;startArrow=none;endArrow=block;endSize=12;strokeColor=#008200;exitX=-0.009;exitY=0.602;exitDx=0;exitDy=0;exitPerimeter=0;" parent="1" source="x8wqoXhmhFcVxB8aigLl-17" edge="1">
          <mxGeometry width="50" height="50" relative="1" as="geometry">
            <Array as="points">
              <mxPoint x="2425" y="167" />
            </Array>
            <mxPoint x="2445" y="203" as="sourcePoint" />
            <mxPoint x="2425" y="107" as="targetPoint" />
          </mxGeometry>
        </mxCell>
      </root>
    </mxGraphModel>
  </diagram>
</mxfile>
